<svg height="512" viewBox="0 0 64 64" width="512" xmlns="http://www.w3.org/2000/svg"><path d="m42 22a20 20 0 1 0 -20 20 20.023 20.023 0 0 0 20-20zm-20 18a18 18 0 1 1 18-18 18.021 18.021 0 0 1 -18 18z"/><path d="m13 13h4v-2h-5a1 1 0 0 0 -1 1v5h2z"/><path d="m32 11h-5v2h4v4h2v-5a1 1 0 0 0 -1-1z"/><path d="m13 27h-2v5a1 1 0 0 0 1 1h5v-2h-4z"/><path d="m31 31h-4v2h5a1 1 0 0 0 1-1v-5h-2z"/><path d="m27 21h-4v-4h-2v4h-4v2h4v4h2v-4h4z"/><path d="m60.43 52.71-13.87-13.86a5.4 5.4 0 0 0 -3.84-1.57 5.527 5.527 0 0 0 -1.268.172l-2.035-2.035a22.177 22.177 0 0 1 -4 4l2.033 2.033a5.381 5.381 0 0 0 1.4 5.11l13.86 13.87a5.38 5.38 0 0 0 3.81 1.57h.04a5.463 5.463 0 0 0 5.44-5.44 5.372 5.372 0 0 0 -1.57-3.85zm-3.137 3-14-14 1.414-1.414 14 14z"/></svg>