<?xml version="1.0" encoding="iso-8859-1"?>
<!-- Generator: Adobe Illustrator 21.0.0, SVG Export Plug-In . SVG Version: 6.00 Build 0)  -->
<svg xmlns="http://www.w3.org/2000/svg" xmlns:xlink="http://www.w3.org/1999/xlink" version="1.1" id="Capa_1" x="0px" y="0px" viewBox="0 0 512 512" style="enable-background:new 0 0 512 512;" xml:space="preserve" width="512" height="512">
<g>
	<path d="M150,105c0-24.813-20.187-45-45-45s-45,20.187-45,45s20.187,45,45,45S150,129.813,150,105z M90,105c0-8.271,6.729-15,15-15   s15,6.729,15,15s-6.729,15-15,15S90,113.271,90,105z"/>
	<path d="M476.767,284.723C457.486,275.229,432.354,270,406,270c-35.38,0-65.614,9.013-84.429,23.445l-111.836-27.747   c-2.495-21.978-24.028-40.312-56.901-49.473l36.209-48.274C202.753,149.675,210,127.906,210,105C210,47.103,162.897,0,105,0   S0,47.103,0,105c0,22.906,7.247,44.675,20.958,62.952l36.209,48.274C22.168,225.979,0,246.125,0,270c0,34.206,45.14,60,105,60   c44.375,0,80.653-14.177,96.457-35.445l100.984,25.054C301.496,322.969,301,326.438,301,330c0,12.551,6.084,23.967,16.737,33.395   l-63.96,37.249C236.575,394.385,216.186,391,195,391c-59.86,0-105,25.794-105,60c0,42.614,61.494,61,105,61   c59.439,0,106-26.794,106-61c0-12.329-5.868-23.753-16.859-33.324l63.741-37.12C364.318,386.569,384.179,390,406,390   c43.91,0,106-17.633,106-60C512,311.992,499.487,295.912,476.767,284.723z M252.351,469.944C237.255,477.606,216.352,482,195,482   c-45.087,0-75-18.659-75-31c0-12.232,29.217-30,75-30c45.688,0,76,18.057,76,30C271,456.758,263.68,464.194,252.351,469.944z    M30,105c0-41.355,33.645-75,75-75s75,33.645,75,75c0,16.363-5.172,31.907-14.957,44.951L105,230.001L44.956,149.95   C35.172,136.907,30,121.363,30,105z M105,300c-45.783,0-75-17.768-75-30c0-8.485,16.234-21.958,46.854-27.527L93,264   c2.833,3.777,7.278,6,12,6s9.167-2.223,12-6l16.147-21.527C163.766,248.042,180,261.515,180,270C180,282.232,150.783,300,105,300z    M406,360c-22.147,0-75-9.382-75-30c0-12.522,30.009-30,75-30c45.688,0,76,18.057,76,30S451.688,360,406,360z"/>
</g>















</svg>
